<?xml version="1.0" encoding="utf-8"?>
<!-- Generator: Adobe Illustrator 16.0.4, SVG Export Plug-In . SVG Version: 6.00 Build 0)  -->
<!DOCTYPE svg PUBLIC "-//W3C//DTD SVG 1.1//EN" "http://www.w3.org/Graphics/SVG/1.1/DTD/svg11.dtd">
<svg version="1.1" id="Layer_1" xmlns="http://www.w3.org/2000/svg" xmlns:xlink="http://www.w3.org/1999/xlink" x="0px" y="0px"
	 width="213.209px" height="34.335px" viewBox="0 0 213.209 34.335" enable-background="new 0 0 213.209 34.335"
	 xml:space="preserve">
<g>
	<rect x="1" y="1" fill="#FFFFFF" width="41.798" height="32.335"/>
	<rect x="1" y="1" fill="none" stroke="#FFFFFF" stroke-width="2" stroke-miterlimit="10" width="211.209" height="32.335"/>
	<g>
		<path fill="#20324D" d="M13.304,12.043c3.04,0,5.24,2.127,5.24,5.066c0,2.924-2.215,5.066-5.284,5.066H9.15V12.043H13.304z
			 M10.858,20.642h2.49c1.969,0,3.474-1.463,3.474-3.518c0-2.07-1.549-3.546-3.546-3.546h-2.417V20.642z"/>
		<path fill="#20324D" d="M26.68,19.106c-0.145,0.016-0.304,0.016-0.463,0.016h-2.403v3.054h-1.708V12.043h4.111
			c2.591,0,4.082,1.259,4.082,3.459c0,1.621-0.753,2.765-2.099,3.286l2.273,3.388h-1.94L26.68,19.106z M26.217,17.587
			c1.563,0,2.461-0.666,2.461-2.041c0-1.332-0.897-1.969-2.461-1.969h-2.403v4.01H26.217z"/>
		<path fill="#20324D" d="M35.468,21.337c0,0.564-0.391,0.969-0.912,0.969s-0.912-0.404-0.912-0.969
			c0-0.551,0.391-0.941,0.912-0.941S35.468,20.786,35.468,21.337z"/>
	</g>
	<g>
		<path fill="#FFFFFF" d="M59.103,19.05c0,2.04-1.202,3.198-3.156,3.198c-1.216,0-2.229-0.536-2.982-1.462l0.811-1.303
			c0.666,0.724,1.462,1.114,2.157,1.114c0.912,0,1.447-0.564,1.447-1.606v-5.414h-3.503v-1.534h5.226V19.05z"/>
		<path fill="#FFFFFF" d="M64.372,21.337c0,0.564-0.391,0.969-0.912,0.969s-0.912-0.404-0.912-0.969
			c0-0.551,0.391-0.941,0.912-0.941S64.372,20.786,64.372,21.337z"/>
		<path fill="#FFFFFF" d="M77.979,12.043c2.099,0,3.402,0.955,3.402,2.533c0,1.144-0.68,1.998-1.781,2.259
			c1.361,0.231,2.172,1.202,2.172,2.562c0,1.737-1.404,2.779-3.691,2.779h-4.502V12.043H77.979z M75.287,16.241h2.605
			c1.086,0,1.737-0.507,1.737-1.361s-0.651-1.317-1.737-1.317h-2.605V16.241z M75.287,20.655h2.605c1.332,0,2.128-0.521,2.128-1.477
			c0-0.896-0.796-1.433-2.128-1.433h-2.605V20.655z"/>
		<path fill="#FFFFFF" d="M90.111,19.106c-0.145,0.016-0.304,0.016-0.463,0.016h-2.403v3.054h-1.708V12.043h4.111
			c2.591,0,4.082,1.259,4.082,3.459c0,1.621-0.752,2.765-2.099,3.286l2.273,3.388h-1.939L90.111,19.106z M89.647,17.587
			c1.563,0,2.461-0.666,2.461-2.041c0-1.332-0.897-1.969-2.461-1.969h-2.403v4.01H89.647z"/>
		<path fill="#FFFFFF" d="M97.74,22.176V12.043h1.708v10.133H97.74z"/>
		<path fill="#FFFFFF" d="M105.282,19.889l-0.97,2.287h-1.781l4.474-10.133h1.751l4.43,10.133h-1.824l-0.969-2.287H105.282z
			 M107.83,13.867l-1.911,4.501h3.821L107.83,13.867z"/>
		<path fill="#FFFFFF" d="M123.377,22.176l-5.4-7.267v7.267h-1.707V12.043h1.68l5.428,7.281v-7.281h1.68v10.133H123.377z"/>
		<path fill="#FFFFFF" d="M138.65,13.577v8.599h-1.709v-8.599h-3.199v-1.534h8.121v1.534H138.65z"/>
		<path fill="#FFFFFF" d="M153.676,17.978c0,2.649-1.664,4.271-4.4,4.271s-4.416-1.621-4.416-4.271v-5.935h1.709v5.935
			c0,1.709,1.057,2.736,2.721,2.736c1.65,0,2.68-1.014,2.68-2.736v-5.935h1.707V17.978z"/>
		<path fill="#FFFFFF" d="M166.197,13.562l-0.998,1.245c-0.738-0.796-1.795-1.289-2.823-1.289c-2.026,0-3.618,1.563-3.618,3.561
			c0,1.997,1.592,3.575,3.618,3.575c1.015,0,2.056-0.463,2.823-1.201l1.014,1.129c-1.028,1.014-2.49,1.665-3.924,1.665
			c-2.967,0-5.27-2.243-5.27-5.153c0-2.881,2.331-5.096,5.328-5.096C163.78,11.999,165.214,12.593,166.197,13.562z"/>
		<path fill="#FFFFFF" d="M173.117,17.703l-1.722,1.896v2.577h-1.709V12.043h1.709v5.24l4.835-5.24h2.012l-3.924,4.328l4.184,5.805
			h-2.055L173.117,17.703z"/>
		<path fill="#FFFFFF" d="M183.525,13.577v2.736h4.951v1.535h-4.951v2.794h5.705v1.534h-7.412V12.043h7.238v1.534H183.525z"/>
		<path fill="#FFFFFF" d="M197.625,19.106c-0.144,0.016-0.303,0.016-0.463,0.016h-2.402v3.054h-1.708V12.043h4.11
			c2.592,0,4.082,1.259,4.082,3.459c0,1.621-0.752,2.765-2.099,3.286l2.273,3.388h-1.94L197.625,19.106z M197.162,17.587
			c1.564,0,2.461-0.666,2.461-2.041c0-1.332-0.896-1.969-2.461-1.969h-2.402v4.01H197.162z"/>
	</g>
</g>
</svg>
